<?xml version="1.0" encoding="UTF-8" standalone="no"?>
<svg width="75px" height="57px" viewBox="0 0 75 57" version="1.1" xmlns="http://www.w3.org/2000/svg" xmlns:xlink="http://www.w3.org/1999/xlink">
    <!-- Generator: Sketch 39.1 (31720) - http://www.bohemiancoding.com/sketch -->
    <title>Group 2</title>
    <desc>Created with Sketch.</desc>
    <defs>
        <rect id="path-1" x="0" y="0" width="75" height="57"></rect>
        <filter x="-50%" y="-50%" width="200%" height="200%" filterUnits="objectBoundingBox" id="filter-2">
            <feOffset dx="0" dy="1" in="SourceAlpha" result="shadowOffsetInner1"></feOffset>
            <feComposite in="shadowOffsetInner1" in2="SourceAlpha" operator="arithmetic" k2="-1" k3="1" result="shadowInnerInner1"></feComposite>
            <feColorMatrix values="0 0 0 0 0   0 0 0 0 0   0 0 0 0 0  0 0 0 0.12 0" type="matrix" in="shadowInnerInner1"></feColorMatrix>
        </filter>
        <rect id="path-3" x="0" y="0" width="28" height="28"></rect>
    </defs>
    <g id="BENTOS" stroke="none" stroke-width="1" fill="none" fill-rule="evenodd">
        <g id="Filters" transform="translate(0.000000, -610.000000)">
            <g id="Group-2" transform="translate(0.000000, 610.000000)">
                <g id="NAV/TAB/Active-Copy">
                    <g id="bg">
                        <use fill-opacity="0.8" fill="#F8F8F8" fill-rule="evenodd" xlink:href="#path-1"></use>
                        <use fill="black" fill-opacity="1" filter="url(#filter-2)" xlink:href="#path-1"></use>
                    </g>
                    <g id="icon" stroke-width="1" fill-rule="evenodd" transform="translate(24.000000, 8.000000)">
                        <rect id="bound" x="0" y="0" width="28" height="28"></rect>
                        <g transform="translate(1.757812, 1.757812)" id="Combined-Shape" fill="#04C9EF">
                            <path d="M12.3046875,0 C5.51953125,0 0,5.51953125 0,12.3046875 C0,19.0892578 5.51953125,24.609375 12.3046875,24.609375 C19.0898438,24.609375 24.609375,19.0892578 24.609375,12.3046875 C24.609375,5.51953125 19.0898438,0 12.3046875,0 Z M13.0623047,12.819668 C12.9533203,12.7100977 12.890625,12.5595117 12.890625,12.4054102 L12.890625,6.44525391 C12.890625,6.12181641 12.628125,5.85931641 12.3046875,5.85931641 C11.98125,5.85931641 11.71875,6.12181641 11.71875,6.44525391 L11.71875,12.4054102 C11.71875,12.8747461 11.9015625,13.316543 12.2337891,13.6481836 L14.8201172,16.2345117 C14.934375,16.3487695 15.084375,16.4061914 15.234375,16.4061914 C15.384375,16.4061914 15.534375,16.3487695 15.6486328,16.2345117 C15.8777344,16.0054102 15.8777344,15.6350977 15.6486328,15.4059961 L13.0623047,12.819668 Z"></path>
                        </g>
                    </g>
                    <rect id="Rectangle" fill="#F9F9F9" fill-rule="evenodd" x="24" y="8" width="28" height="28"></rect>
                    <text id="Label" font-family="HelveticaNeue, Helvetica Neue" font-size="12" font-weight="normal" fill="#04C9EF">
                        <tspan x="15.498" y="49">Recents</tspan>
                    </text>
                </g>
                <g id="ICON/Recents-(28x28)-Active" transform="translate(24.000000, 8.000000)">
                    <g id="Rectangle">
                        <use fill="#FFFFFF" xlink:href="#path-3"></use>
                        <use fill-opacity="0.8" fill="#F8F8F8" xlink:href="#path-3"></use>
                    </g>
                    <g id="icon" stroke-width="1">
                        <rect id="bound" x="0" y="0" width="28" height="28"></rect>
                        <g transform="translate(1.757812, 1.757812)" id="Combined-Shape" fill="#04C9EF">
                            <path d="M12.3046875,0 C5.51953125,0 0,5.51953125 0,12.3046875 C0,19.0892578 5.51953125,24.609375 12.3046875,24.609375 C19.0898438,24.609375 24.609375,19.0892578 24.609375,12.3046875 C24.609375,5.51953125 19.0898438,0 12.3046875,0 Z M13.0623047,12.819668 C12.9533203,12.7100977 12.890625,12.5595117 12.890625,12.4054102 L12.890625,6.44525391 C12.890625,6.12181641 12.628125,5.85931641 12.3046875,5.85931641 C11.98125,5.85931641 11.71875,6.12181641 11.71875,6.44525391 L11.71875,12.4054102 C11.71875,12.8747461 11.9015625,13.316543 12.2337891,13.6481836 L14.8201172,16.2345117 C14.934375,16.3487695 15.084375,16.4061914 15.234375,16.4061914 C15.384375,16.4061914 15.534375,16.3487695 15.6486328,16.2345117 C15.8777344,16.0054102 15.8777344,15.6350977 15.6486328,15.4059961 L13.0623047,12.819668 Z"></path>
                        </g>
                    </g>
                </g>
            </g>
        </g>
    </g>
</svg>