<?xml version="1.0" encoding="UTF-8" standalone="no"?>
<svg width="75px" height="57px" viewBox="0 0 75 57" version="1.1" xmlns="http://www.w3.org/2000/svg" xmlns:xlink="http://www.w3.org/1999/xlink">
    <!-- Generator: Sketch 39.1 (31720) - http://www.bohemiancoding.com/sketch -->
    <title>Group 4</title>
    <desc>Created with Sketch.</desc>
    <defs>
        <rect id="path-1" x="0" y="0" width="75" height="57"></rect>
        <filter x="-50%" y="-50%" width="200%" height="200%" filterUnits="objectBoundingBox" id="filter-2">
            <feOffset dx="0" dy="1" in="SourceAlpha" result="shadowOffsetInner1"></feOffset>
            <feComposite in="shadowOffsetInner1" in2="SourceAlpha" operator="arithmetic" k2="-1" k3="1" result="shadowInnerInner1"></feComposite>
            <feColorMatrix values="0 0 0 0 0   0 0 0 0 0   0 0 0 0 0  0 0 0 0.12 0" type="matrix" in="shadowInnerInner1"></feColorMatrix>
        </filter>
        <rect id="path-3" x="0" y="0" width="28" height="28"></rect>
    </defs>
    <g id="BENTOS" stroke="none" stroke-width="1" fill="none" fill-rule="evenodd">
        <g id="Voicemail" transform="translate(-300.000000, -610.000000)">
            <g id="Group-4" transform="translate(300.000000, 610.000000)">
                <g id="NAV/TAB/Default-Copy">
                    <g id="bg">
                        <use fill-opacity="0.8" fill="#F8F8F8" fill-rule="evenodd" xlink:href="#path-1"></use>
                        <use fill="black" fill-opacity="1" filter="url(#filter-2)" xlink:href="#path-1"></use>
                    </g>
                    <g id="icon" stroke-width="1" fill-rule="evenodd" transform="translate(24.000000, 8.000000)">
                        <rect id="bound" x="0" y="0" width="28" height="28"></rect>
                        <g transform="translate(1.757812, 1.757812)" id="Combined-Shape" fill="#04C9EF">
                            <path d="M12.3046875,0 C5.51953125,0 0,5.51953125 0,12.3046875 C0,19.0892578 5.51953125,24.609375 12.3046875,24.609375 C19.0898438,24.609375 24.609375,19.0892578 24.609375,12.3046875 C24.609375,5.51953125 19.0898438,0 12.3046875,0 Z M13.0623047,12.819668 C12.9533203,12.7100977 12.890625,12.5595117 12.890625,12.4054102 L12.890625,6.44525391 C12.890625,6.12181641 12.628125,5.85931641 12.3046875,5.85931641 C11.98125,5.85931641 11.71875,6.12181641 11.71875,6.44525391 L11.71875,12.4054102 C11.71875,12.8747461 11.9015625,13.316543 12.2337891,13.6481836 L14.8201172,16.2345117 C14.934375,16.3487695 15.084375,16.4061914 15.234375,16.4061914 C15.384375,16.4061914 15.534375,16.3487695 15.6486328,16.2345117 C15.8777344,16.0054102 15.8777344,15.6350977 15.6486328,15.4059961 L13.0623047,12.819668 Z"></path>
                        </g>
                    </g>
                    <rect id="Rectangle" fill="#F9F9F9" fill-rule="evenodd" x="24" y="8" width="28" height="28"></rect>
                    <text id="Label" opacity="0.48" font-family="HelveticaNeue, Helvetica Neue" font-size="12" font-weight="normal" fill="#444444">
                        <tspan x="29.052" y="49">Me</tspan>
                    </text>
                </g>
                <g id="ICON/me-(28x28)" transform="translate(24.000000, 8.000000)">
                    <g id="Rectangle" fill-rule="evenodd">
                        <use fill="#FFFFFF" xlink:href="#path-3"></use>
                        <use fill-opacity="0.8" fill="#F8F8F8" xlink:href="#path-3"></use>
                    </g>
                    <rect id="Rectangle-6-Copy-4" x="0" y="0" width="28" height="28"></rect>
                    <g id="Group-7" stroke-width="1" fill-rule="evenodd" transform="translate(2.000000, 2.000000)" stroke="#AEAEAF" stroke-linejoin="round">
                        <path d="M12,0 L12,0 C18.6,0 24,5.4 24,12 L24,12 C24,18.6275294 18.6275294,24 12,24 L12,24 C5.4,24 0,18.6 0,12 L0,12 C0,5.37247059 5.37247059,0 12,0 L12,0 Z" id="Stroke-1"></path>
                        <path d="M18.3529412,10.5882353 C18.3529412,14.0971765 15.5089412,16.9411765 12,16.9411765 C8.49105882,16.9411765 5.64705882,14.0971765 5.64705882,10.5882353 C5.64705882,7.07929412 8.49105882,4.23529412 12,4.23529412 C15.5089412,4.23529412 18.3529412,7.07929412 18.3529412,10.5882353 L18.3529412,10.5882353 Z" id="Stroke-3" stroke-linecap="round"></path>
                        <path d="M20.0731765,20.0357647 C19.3842353,18.1927059 17.6152941,16.9411765 15.6105882,16.9411765 L7.23176471,16.9411765 C5.27788235,16.9411765 3.54776471,18.1298824 2.82352941,19.896" id="Stroke-5" stroke-linecap="round"></path>
                    </g>
                </g>
            </g>
        </g>
    </g>
</svg>