<?xml version="1.0" encoding="UTF-8" standalone="no"?>
<svg width="75px" height="57px" viewBox="0 0 75 57" version="1.1" xmlns="http://www.w3.org/2000/svg" xmlns:xlink="http://www.w3.org/1999/xlink">
    <!-- Generator: Sketch 39.1 (31720) - http://www.bohemiancoding.com/sketch -->
    <title>Group 3</title>
    <desc>Created with Sketch.</desc>
    <defs>
        <rect id="path-1" x="0" y="0" width="75" height="57"></rect>
        <filter x="-50%" y="-50%" width="200%" height="200%" filterUnits="objectBoundingBox" id="filter-2">
            <feOffset dx="0" dy="1" in="SourceAlpha" result="shadowOffsetInner1"></feOffset>
            <feComposite in="shadowOffsetInner1" in2="SourceAlpha" operator="arithmetic" k2="-1" k3="1" result="shadowInnerInner1"></feComposite>
            <feColorMatrix values="0 0 0 0 0   0 0 0 0 0   0 0 0 0 0  0 0 0 0.12 0" type="matrix" in="shadowInnerInner1"></feColorMatrix>
        </filter>
    </defs>
    <g id="BENTOS" stroke="none" stroke-width="1" fill="none" fill-rule="evenodd">
        <g id="Filters" transform="translate(-75.000000, -610.000000)">
            <g id="Group-3" transform="translate(75.000000, 610.000000)">
                <g id="NAV/TAB/Default-Copy">
                    <g id="bg">
                        <use fill-opacity="0.8" fill="#F8F8F8" fill-rule="evenodd" xlink:href="#path-1"></use>
                        <use fill="black" fill-opacity="1" filter="url(#filter-2)" xlink:href="#path-1"></use>
                    </g>
                    <g id="icon" stroke-width="1" fill-rule="evenodd" transform="translate(24.000000, 8.000000)">
                        <rect id="bound" x="0" y="0" width="28" height="28"></rect>
                        <g transform="translate(1.757812, 1.757812)" id="Combined-Shape" fill="#04C9EF">
                            <path d="M12.3046875,0 C5.51953125,0 0,5.51953125 0,12.3046875 C0,19.0892578 5.51953125,24.609375 12.3046875,24.609375 C19.0898438,24.609375 24.609375,19.0892578 24.609375,12.3046875 C24.609375,5.51953125 19.0898438,0 12.3046875,0 Z M13.0623047,12.819668 C12.9533203,12.7100977 12.890625,12.5595117 12.890625,12.4054102 L12.890625,6.44525391 C12.890625,6.12181641 12.628125,5.85931641 12.3046875,5.85931641 C11.98125,5.85931641 11.71875,6.12181641 11.71875,6.44525391 L11.71875,12.4054102 C11.71875,12.8747461 11.9015625,13.316543 12.2337891,13.6481836 L14.8201172,16.2345117 C14.934375,16.3487695 15.084375,16.4061914 15.234375,16.4061914 C15.384375,16.4061914 15.534375,16.3487695 15.6486328,16.2345117 C15.8777344,16.0054102 15.8777344,15.6350977 15.6486328,15.4059961 L13.0623047,12.819668 Z"></path>
                        </g>
                    </g>
                    <rect id="Rectangle" fill="#F9F9F9" fill-rule="evenodd" x="24" y="8" width="28" height="28"></rect>
                    <text id="Label" opacity="0.48" font-family="HelveticaNeue, Helvetica Neue" font-size="12" font-weight="normal" fill="#444444">
                        <tspan x="19.494" y="49">Teams</tspan>
                    </text>
                </g>
                <g id="Page-1" opacity="0.48" transform="translate(24.000000, 12.000000)" stroke="#565656" stroke-linecap="round" stroke-linejoin="round">
                    <path d="M18.9411765,4.94117647 C18.9411765,7.67035294 16.7291765,9.88235294 14,9.88235294 C11.2708235,9.88235294 9.05882353,7.67035294 9.05882353,4.94117647 C9.05882353,2.212 11.2708235,0 14,0 C16.7291765,0 18.9411765,2.212 18.9411765,4.94117647 L18.9411765,4.94117647 Z" id="Stroke-1"></path>
                    <path d="M7.41176471,8.23529412 C7.41176471,10.0544706 5.93682353,11.5294118 4.11764706,11.5294118 C2.29847059,11.5294118 0.823529412,10.0544706 0.823529412,8.23529412 C0.823529412,6.41611765 2.29847059,4.94117647 4.11764706,4.94117647 C5.93682353,4.94117647 7.41176471,6.41611765 7.41176471,8.23529412 L7.41176471,8.23529412 Z" id="Stroke-3"></path>
                    <path d="M11.5294118,9.88235294 L16.4705882,9.88235294 C19.6543529,9.88235294 22.2352941,12.4632941 22.2352941,15.6470588 L22.2352941,19.7647059 L5.76470588,19.7647059 L5.76470588,15.6470588 C5.76470588,12.4632941 8.34564706,9.88235294 11.5294118,9.88235294 L11.5294118,9.88235294 Z" id="Stroke-5"></path>
                    <path d="M5.76470588,18.1176471 L0,18.1176471 L0,15.6470588 C0,13.3732941 1.84388235,11.5294118 4.11764706,11.5294118 L4.11764706,11.5294118 C5.10176471,11.5294118 5.98541176,11.9609412 6.58905882,12.6452941" id="Stroke-7"></path>
                    <path d="M20.5882353,8.23529412 C20.5882353,10.0544706 22.0631765,11.5294118 23.8823529,11.5294118 C25.7015294,11.5294118 27.1764706,10.0544706 27.1764706,8.23529412 C27.1764706,6.41611765 25.7015294,4.94117647 23.8823529,4.94117647 C22.0631765,4.94117647 20.5882353,6.41611765 20.5882353,8.23529412 L20.5882353,8.23529412 Z" id="Stroke-9"></path>
                    <path d="M22.2352941,18.1176471 L28,18.1176471 L28,15.6470588 C28,13.3732941 26.1561176,11.5294118 23.8823529,11.5294118 L23.8823529,11.5294118 C22.8982353,11.5294118 22.0145882,11.9609412 21.4109412,12.6452941" id="Stroke-11"></path>
                </g>
            </g>
        </g>
    </g>
</svg>