<?xml version="1.0" encoding="UTF-8" standalone="no"?>
<svg width="75px" height="57px" viewBox="0 0 75 57" version="1.1" xmlns="http://www.w3.org/2000/svg" xmlns:xlink="http://www.w3.org/1999/xlink">
    <!-- Generator: Sketch 39.1 (31720) - http://www.bohemiancoding.com/sketch -->
    <title>Calls</title>
    <desc>Created with Sketch.</desc>
    <defs>
        <rect id="path-1" x="0" y="0" width="75" height="57"></rect>
        <filter x="-50%" y="-50%" width="200%" height="200%" filterUnits="objectBoundingBox" id="filter-2">
            <feOffset dx="0" dy="1" in="SourceAlpha" result="shadowOffsetInner1"></feOffset>
            <feComposite in="shadowOffsetInner1" in2="SourceAlpha" operator="arithmetic" k2="-1" k3="1" result="shadowInnerInner1"></feComposite>
            <feColorMatrix values="0 0 0 0 0   0 0 0 0 0   0 0 0 0 0  0 0 0 0.12 0" type="matrix" in="shadowInnerInner1"></feColorMatrix>
        </filter>
        <path d="M46.6381534,33 C46.4443447,33 46.2489646,32.9759048 46.0562036,32.9266667 C42.3298392,31.9801429 38.0728581,29.3181429 34.3773983,25.6226667 C30.6819386,21.9271905 28.0194266,17.6701905 27.0734308,13.9438095 C26.8932411,13.2361429 27.0482881,12.498619 27.4987622,11.9198095 C27.9529031,11.3352381 28.6385667,11 29.3787063,11 L31.7966003,11 C32.9919283,11 34.0693997,11.7097619 34.54135,12.8076667 L35.4553935,14.9317143 C35.8749631,15.9096667 35.8430109,17.0154286 35.3679177,17.9671905 L34.7513967,19.1991905 C34.6277782,19.4469524 34.6586828,19.7413333 34.8331106,19.9655238 C36.1400095,21.6459048 38.0440487,23.5358095 40.0565159,25.1512381 C40.2754674,25.3272381 40.5777041,25.3612857 40.8244173,25.2376667 L42.0333643,24.6326667 C42.9845982,24.1570476 44.0914028,24.1245714 45.0683032,24.5457143 L45.0683032,24.5451905 L47.1923414,25.4587143 C48.2902413,25.9306667 49,27.0086667 49,28.2034762 L49,30.6208571 C49,31.3615238 48.6642396,32.0466667 48.0796708,32.5013333 C47.6590536,32.8287143 47.1546273,33 46.6381534,33 L46.6381534,33 Z" id="path-3"></path>
        <mask id="mask-4" maskContentUnits="userSpaceOnUse" maskUnits="objectBoundingBox" x="0" y="0" width="22" height="22" fill="white">
            <use xlink:href="#path-3"></use>
        </mask>
    </defs>
    <g id="BENTOS" stroke="none" stroke-width="1" fill="none" fill-rule="evenodd">
        <g id="Filters" transform="translate(-150.000000, -610.000000)">
            <g id="Calls" transform="translate(150.000000, 610.000000)">
                <g id="NAV/TAB/Default-Copy">
                    <g id="bg">
                        <use fill-opacity="0.8" fill="#F8F8F8" fill-rule="evenodd" xlink:href="#path-1"></use>
                        <use fill="black" fill-opacity="1" filter="url(#filter-2)" xlink:href="#path-1"></use>
                    </g>
                    <g id="icon" stroke-width="1" fill-rule="evenodd" transform="translate(24.000000, 8.000000)">
                        <rect id="bound" x="0" y="0" width="28" height="28"></rect>
                        <g transform="translate(1.757812, 1.757812)" id="Combined-Shape" fill="#04C9EF">
                            <path d="M12.3046875,0 C5.51953125,0 0,5.51953125 0,12.3046875 C0,19.0892578 5.51953125,24.609375 12.3046875,24.609375 C19.0898438,24.609375 24.609375,19.0892578 24.609375,12.3046875 C24.609375,5.51953125 19.0898438,0 12.3046875,0 Z M13.0623047,12.819668 C12.9533203,12.7100977 12.890625,12.5595117 12.890625,12.4054102 L12.890625,6.44525391 C12.890625,6.12181641 12.628125,5.85931641 12.3046875,5.85931641 C11.98125,5.85931641 11.71875,6.12181641 11.71875,6.44525391 L11.71875,12.4054102 C11.71875,12.8747461 11.9015625,13.316543 12.2337891,13.6481836 L14.8201172,16.2345117 C14.934375,16.3487695 15.084375,16.4061914 15.234375,16.4061914 C15.384375,16.4061914 15.534375,16.3487695 15.6486328,16.2345117 C15.8777344,16.0054102 15.8777344,15.6350977 15.6486328,15.4059961 L13.0623047,12.819668 Z"></path>
                        </g>
                    </g>
                    <rect id="Rectangle" fill="#F9F9F9" fill-rule="evenodd" x="24" y="8" width="28" height="28"></rect>
                    <text id="Label" opacity="0.48" font-family="HelveticaNeue, Helvetica Neue" font-size="12" font-weight="normal" fill="#444444">
                        <tspan x="24.282" y="49">Calls</tspan>
                    </text>
                </g>
                <use id="Fill-1" stroke="#AEAEAF" mask="url(#mask-4)" stroke-width="2.31577918" xlink:href="#path-3"></use>
            </g>
        </g>
    </g>
</svg>